HIERARCHY
ROOT Hips
{
	OFFSET 0.00000 0.00000 0.00000
	CHANNELS 6 Xposition Yposition Zposition Zrotation Yrotation Xrotation 
	JOINT LHipJoint
	{
		OFFSET 0 0 0
		CHANNELS 3 Zrotation Yrotation Xrotation
		JOINT LeftUpLeg
		{
			OFFSET 3.13874 -1.57224 1.49786
			CHANNELS 3 Zrotation Yrotation Xrotation
			JOINT LeftLeg
			{
				OFFSET 2.10955 -5.79594 0.00000
				CHANNELS 3 Zrotation Yrotation Xrotation
				JOINT LeftFoot
				{
					OFFSET 2.41843 -6.64458 0.00000
					CHANNELS 3 Zrotation Yrotation Xrotation
					JOINT LeftToeBase
					{
						OFFSET 0.04713 -0.12948 1.66229
						CHANNELS 3 Zrotation Yrotation Xrotation
						End Site
						{
							OFFSET 0.00000 -0.00000 0.85167
						}
					}
				}
			}
		}
	}
	JOINT RHipJoint
	{
		OFFSET 0 0 0
		CHANNELS 3 Zrotation Yrotation Xrotation
		JOINT RightUpLeg
		{
			OFFSET -3.13988 -1.57224 1.49786
			CHANNELS 3 Zrotation Yrotation Xrotation
			JOINT RightLeg
			{
				OFFSET -2.15006 -5.90725 0.00000
				CHANNELS 3 Zrotation Yrotation Xrotation
				JOINT RightFoot
				{
					OFFSET -2.34496 -6.44273 0.00000
					CHANNELS 3 Zrotation Yrotation Xrotation
					JOINT RightToeBase
					{
						OFFSET -0.08699 -0.23900 1.55223
						CHANNELS 3 Zrotation Yrotation Xrotation
						End Site
						{
							OFFSET -0.00000 -0.00000 0.80281
						}
					}
				}
			}
		}
	}
	JOINT LowerBack
	{
		OFFSET 0 0 0
		CHANNELS 3 Zrotation Yrotation Xrotation
		JOINT Spine
		{
			OFFSET 0.01292 1.96517 -0.16495
			CHANNELS 3 Zrotation Yrotation Xrotation
			JOINT Spine1
			{
				OFFSET 0.02122 1.88666 0.19706
				CHANNELS 3 Zrotation Yrotation Xrotation
				JOINT Neck
				{
					OFFSET 0 0 0
					CHANNELS 3 Zrotation Yrotation Xrotation
					JOINT Neck1
					{
						OFFSET -0.01683 1.81591 0.07903
						CHANNELS 3 Zrotation Yrotation Xrotation
						JOINT Head
						{
							OFFSET 0.00815 1.74013 -0.47700
							CHANNELS 3 Zrotation Yrotation Xrotation
							End Site
							{
								OFFSET -0.00204 1.83225 -0.16933
							}
						}
					}
				}
				JOINT LeftShoulder
				{
					OFFSET 0 0 0
					CHANNELS 3 Zrotation Yrotation Xrotation
					JOINT LeftArm
					{
						OFFSET 3.38482 1.41533 0.19802
						CHANNELS 3 Zrotation Yrotation Xrotation
						JOINT LeftForeArm
						{
							OFFSET 4.32712 -0.00000 0.00000
							CHANNELS 3 Zrotation Yrotation Xrotation
							JOINT LeftHand
							{
								OFFSET 3.28587 -0.00000 -0.00000
								CHANNELS 3 Zrotation Yrotation Xrotation
								JOINT LeftFingerBase
								{
									OFFSET 0 0 0
									CHANNELS 3 Zrotation Yrotation Xrotation
									JOINT LeftHandIndex1
									{
										OFFSET 0.43316 -0.00000 -0.00000
										CHANNELS 3 Zrotation Yrotation Xrotation
										End Site
										{
											OFFSET 0.34922 -0.00000 -0.00000
										}
									}
								}
								JOINT LThumb
								{
									OFFSET 0 0 0
									CHANNELS 3 Zrotation Yrotation Xrotation
									End Site
									{
										OFFSET 0.35456 -0.00000 0.35456
									}
								}
							}
						}
					}
				}
				JOINT RightShoulder
				{
					OFFSET 0 0 0
					CHANNELS 3 Zrotation Yrotation Xrotation
					JOINT RightArm
					{
						OFFSET -3.09725 1.62858 -0.14144
						CHANNELS 3 Zrotation Yrotation Xrotation
						JOINT RightForeArm
						{
							OFFSET -4.29104 -0.00000 0.00000
							CHANNELS 3 Zrotation Yrotation Xrotation
							JOINT RightHand
							{
								OFFSET -3.22720 -0.00000 -0.00000
								CHANNELS 3 Zrotation Yrotation Xrotation
								JOINT RightFingerBase
								{
									OFFSET 0 0 0
									CHANNELS 3 Zrotation Yrotation Xrotation
									JOINT RightHandIndex1
									{
										OFFSET -0.54362 -0.00000 -0.00000
										CHANNELS 3 Zrotation Yrotation Xrotation
										End Site
										{
											OFFSET -0.43828 -0.00000 -0.00000
										}
									}
								}
								JOINT RThumb
								{
									OFFSET 0 0 0
									CHANNELS 3 Zrotation Yrotation Xrotation
									End Site
									{
										OFFSET -0.44497 -0.00000 0.44497
									}
								}
							}
						}
					}
				}
			}
		}
	}
}
MOTION
Frames: 5
Frame Time: .0083333
38.5812 15.9524 3.5676 362.0620 215.5240 372.2700 0.0000 0.0000 0.0000 -8.8114 -32.2050 -18.3502 0.8610 5.9171 16.5441 -0.1913 12.2725 -14.6329 13.0364 -18.7953 -69.2386 0.0000 0.0000 0.0000 24.9029 1.4265 -4.1275 -0.2202 -3.0206 8.3360 -2.2670 -5.3220 -30.7246 -0.0219 -0.9545 2.6236 5.7444 1.2812 12.7803 -1.6147 2.3345 -10.0861 -5.7356 -0.0437 -18.6636 6.1696 5.4246 -12.0572 -5.9050 6.1505 35.5862 -2.7747 1.8216 14.7259 -0.0000 0.0000 0.0000 -74.5108 20.7510 32.3702 19.6897 -30.2667 -5.3741 -0.0000 0.0000 -0.4974 38.7152 14.2360 11.1513 -7.1250 0.0000 -0.0000 10.9117 47.6888 0.7322 -0.0000 0.0000 0.0000 78.3227 -33.1371 34.1802 -18.1281 28.3208 -4.6098 0.0000 -0.0000 -8.0087 -26.8125 -19.6020 9.6234 7.1250 -0.0000 -0.0000 1.5643 -51.7264 -0.2592
38.6607 15.9627 3.5746 362.0410 218.8480 372.4330 0.0000 0.0000 0.0000 -8.4615 -31.7006 -19.9919 0.7622 5.5755 15.5576 -0.0956 12.2139 -16.0441 12.4237 -18.5641 -67.3255 0.0000 0.0000 0.0000 25.3581 1.1418 -3.6195 -0.1872 -2.7864 7.6846 -2.5858 -5.0152 -32.4631 -0.0530 -1.4860 4.0870 5.3669 1.0827 12.6491 -0.9877 2.0847 -10.0480 -4.7089 -0.0313 -18.5901 5.5236 4.9126 -11.8002 -6.4309 5.8573 34.7878 -2.8892 1.5996 14.2579 -0.0000 -0.0000 0.0000 -75.7996 21.3711 31.3176 19.9579 -30.5916 -5.5099 -0.0000 0.0000 -0.0221 34.8720 20.2211 13.5430 -7.1250 0.0000 -0.0000 6.8422 54.0289 1.5240 -0.0000 -0.0000 0.0000 76.9391 -33.0664 35.1841 -18.0136 28.1745 -4.5556 0.0000 -0.0000 -8.6517 -26.4093 -19.6810 9.4948 7.1250 -0.0000 -0.0000 1.9923 -51.7385 -0.3307
38.7203 15.9700 3.5771 362.0790 221.9730 372.5060 0.0000 0.0000 0.0000 -8.3826 -31.2498 -21.2076 0.6530 5.1690 14.3913 0.1513 12.3051 -19.3489 11.5296 -18.1846 -64.4897 0.0000 0.0000 0.0000 25.8531 0.7819 -3.0319 -0.1511 -2.5046 6.9025 -2.8560 -5.3193 -34.1214 -0.0305 -1.1267 3.0974 5.0561 0.8862 12.5275 -0.3863 1.8430 -10.0306 -3.7581 -0.0325 -18.5397 3.7977 4.9306 -12.2317 -5.5368 6.1163 34.8824 -2.1653 1.6185 14.3065 -0.0000 0.0000 0.0000 -76.5478 21.2216 30.9406 19.7146 -30.2969 -5.3866 -0.0000 0.0000 -0.1798 29.2870 29.6958 15.5282 -7.1250 0.0000 -0.0000 -2.1446 63.1469 -0.9449 -0.0000 0.0000 0.0000 75.4963 -32.8827 36.4501 -17.8253 27.9329 -4.4671 0.0000 -0.0000 -9.2692 -25.7224 -19.4370 9.1077 7.1250 -0.0000 -0.0000 2.6308 -51.3513 -0.4118
38.7681 15.9785 3.5806 362.2840 224.9030 372.3990 0.0000 0.0000 0.0000 -8.3777 -30.7868 -22.0504 0.5314 4.6712 12.9732 0.9145 10.8484 -25.0306 9.8697 -17.3359 -59.0519 0.0000 0.0000 0.0000 26.4850 0.3113 -2.5189 -0.1195 -2.2288 6.1384 -3.0291 -6.3565 -35.5442 -0.0079 -0.5745 1.5787 4.6893 0.7383 12.5401 0.2692 1.6697 -10.0447 -2.7386 0.0013 -18.6109 3.3022 4.2910 -11.5490 -6.1177 5.5839 33.6462 -2.3553 1.3319 13.5636 -0.0000 0.0000 0.0000 -77.7002 22.1217 29.6529 20.0450 -30.6965 -5.5543 -0.0000 -0.0000 0.2555 28.7182 29.1977 14.9641 -7.1250 0.0000 -0.0000 -2.6083 62.4669 -1.1076 -0.0000 0.0000 0.0000 73.8462 -32.6587 38.0957 -17.6703 27.7329 -4.3947 0.0000 -0.0000 -9.8879 -25.1688 -19.3870 8.8657 7.1250 -0.0000 -0.0000 3.1758 -51.1996 -0.4854
38.8055 15.9794 3.5827 362.6170 227.5340 372.3630 0.0000 0.0000 0.0000 -8.0913 -30.5243 -22.8175 0.4789 4.4378 12.3118 1.7178 8.9928 -29.4033 9.0078 -16.8127 -56.1170 0.0000 0.0000 0.0000 27.2959 0.3430 -2.0763 -0.0934 -1.9714 5.4265 -3.4112 -6.5458 -37.5874 -0.0348 -1.2048 3.3125 4.2594 0.6765 12.3801 0.9136 1.5792 -10.1204 -1.7161 0.0754 -18.6359 2.8304 3.9619 -11.3223 -6.5503 5.4206 32.9976 -2.4432 1.1943 13.2199 -0.0000 -0.0000 0.0000 -78.7261 22.7630 28.1860 20.2314 -30.9201 -5.6498 -0.0000 -0.0000 0.2528 27.8346 28.0005 13.9225 -7.1250 0.0000 -0.0000 -3.1221 60.9710 -1.2156 -0.0000 -0.0000 0.0000 72.2317 -32.2964 39.7765 -17.5095 27.5245 -4.3201 0.0000 -0.0000 -9.9658 -24.9487 -19.7662 8.9410 7.1250 -0.0000 -0.0000 3.4911 -51.5674 -0.5652
